<svg width="166" height="27" viewBox="0 0 166 27" fill="none" xmlns="http://www.w3.org/2000/svg">
<path d="M159.809 21.1409C158.513 21.1409 157.465 20.8487 156.665 20.2643C155.871 19.6735 155.388 18.8413 155.216 17.7678L157.865 17.3676C157.973 17.8504 158.211 18.2283 158.58 18.5015C158.955 18.7746 159.428 18.9112 160 18.9112C160.47 18.9112 160.832 18.8223 161.086 18.6444C161.34 18.4602 161.467 18.2061 161.467 17.8821C161.467 17.6789 161.416 17.5169 161.315 17.3962C161.213 17.2691 160.984 17.1453 160.629 17.0246C160.279 16.9039 159.733 16.7451 158.99 16.5481C158.151 16.3321 157.481 16.0908 156.979 15.824C156.477 15.5572 156.115 15.2395 155.893 14.8711C155.67 14.4963 155.559 14.0453 155.559 13.518C155.559 12.8574 155.728 12.2857 156.064 11.8029C156.401 11.3138 156.874 10.939 157.484 10.6785C158.1 10.4117 158.824 10.2783 159.657 10.2783C160.463 10.2783 161.178 10.4022 161.801 10.6499C162.423 10.8977 162.925 11.2502 163.306 11.7076C163.694 12.165 163.932 12.7049 164.021 13.3275L161.372 13.8039C161.327 13.4228 161.162 13.121 160.876 12.8987C160.59 12.6763 160.203 12.5461 159.714 12.508C159.237 12.4762 158.853 12.5398 158.561 12.6986C158.275 12.8574 158.132 13.0861 158.132 13.3846C158.132 13.5625 158.192 13.7118 158.313 13.8325C158.44 13.9532 158.697 14.077 159.085 14.2041C159.479 14.3311 160.076 14.4963 160.876 14.6996C161.658 14.9029 162.283 15.1411 162.753 15.4142C163.23 15.681 163.576 16.005 163.792 16.3861C164.008 16.7609 164.116 17.2151 164.116 17.7487C164.116 18.8032 163.735 19.6322 162.973 20.2357C162.21 20.8392 161.156 21.1409 159.809 21.1409Z" fill="black"/>
<path d="M149.387 21.1409C148.091 21.1409 147.043 20.8487 146.243 20.2643C145.449 19.6735 144.966 18.8413 144.794 17.7678L147.443 17.3676C147.551 17.8504 147.79 18.2283 148.158 18.5015C148.533 18.7746 149.006 18.9112 149.578 18.9112C150.048 18.9112 150.41 18.8223 150.664 18.6444C150.918 18.4602 151.045 18.2061 151.045 17.8821C151.045 17.6789 150.994 17.5169 150.893 17.3962C150.791 17.2691 150.562 17.1453 150.207 17.0246C149.857 16.9039 149.311 16.7451 148.568 16.5481C147.729 16.3321 147.059 16.0908 146.557 15.824C146.055 15.5572 145.693 15.2395 145.471 14.8711C145.249 14.4963 145.137 14.0453 145.137 13.518C145.137 12.8574 145.306 12.2857 145.642 11.8029C145.979 11.3138 146.452 10.939 147.062 10.6785C147.678 10.4117 148.403 10.2783 149.235 10.2783C150.041 10.2783 150.756 10.4022 151.379 10.6499C152.001 10.8977 152.503 11.2502 152.884 11.7076C153.272 12.165 153.51 12.7049 153.599 13.3275L150.95 13.8039C150.905 13.4228 150.74 13.121 150.454 12.8987C150.169 12.6763 149.781 12.5461 149.292 12.508C148.815 12.4762 148.431 12.5398 148.139 12.6986C147.853 12.8574 147.71 13.0861 147.71 13.3846C147.71 13.5625 147.771 13.7118 147.891 13.8325C148.018 13.9532 148.276 14.077 148.663 14.2041C149.057 14.3311 149.654 14.4963 150.454 14.6996C151.236 14.9029 151.861 15.1411 152.332 15.4142C152.808 15.681 153.154 16.005 153.37 16.3861C153.586 16.7609 153.694 17.2151 153.694 17.7487C153.694 18.8032 153.313 19.6322 152.551 20.2357C151.788 20.8392 150.734 21.1409 149.387 21.1409Z" fill="black"/>
<path d="M138.555 21.1409C137.501 21.1409 136.57 20.9154 135.763 20.4644C134.963 20.007 134.334 19.3813 133.877 18.5872C133.426 17.7868 133.2 16.8721 133.2 15.843C133.2 14.7186 133.422 13.7404 133.867 12.9082C134.312 12.076 134.925 11.4313 135.706 10.9739C136.487 10.5102 137.386 10.2783 138.403 10.2783C139.483 10.2783 140.4 10.5324 141.156 11.0406C141.912 11.5488 142.471 12.2634 142.833 13.1845C143.196 14.1056 143.323 15.1887 143.215 16.4338H140.651V15.4809C140.651 14.4328 140.483 13.68 140.146 13.2227C139.816 12.7589 139.273 12.5271 138.517 12.5271C137.634 12.5271 136.983 12.797 136.564 13.337C136.151 13.8706 135.944 14.6615 135.944 15.7096C135.944 16.6688 136.151 17.4121 136.564 17.9393C136.983 18.4602 137.596 18.7206 138.403 18.7206C138.911 18.7206 139.346 18.6095 139.708 18.3871C140.07 18.1648 140.346 17.844 140.537 17.4248L143.129 18.168C142.741 19.1081 142.128 19.8387 141.29 20.3596C140.458 20.8805 139.546 21.1409 138.555 21.1409ZM135.144 16.4338V14.509H141.966V16.4338H135.144Z" fill="black"/>
<path d="M128.855 20.8551V15.9955C128.855 15.7604 128.843 15.4619 128.817 15.0998C128.792 14.7314 128.712 14.3629 128.579 13.9945C128.446 13.626 128.226 13.318 127.922 13.0702C127.623 12.8225 127.197 12.6986 126.645 12.6986C126.422 12.6986 126.184 12.7335 125.93 12.8034C125.676 12.8733 125.438 13.0099 125.215 13.2131C124.993 13.4101 124.809 13.7023 124.663 14.0898C124.523 14.4773 124.453 14.9918 124.453 15.6334L122.967 14.9283C122.967 14.1152 123.132 13.3529 123.462 12.6414C123.792 11.93 124.288 11.3551 124.949 10.9167C125.616 10.4784 126.454 10.2593 127.464 10.2593C128.271 10.2593 128.928 10.3959 129.437 10.669C129.945 10.9422 130.339 11.2884 130.618 11.7076C130.904 12.1269 131.107 12.5652 131.228 13.0226C131.349 13.4736 131.422 13.8865 131.447 14.2613C131.473 14.6361 131.485 14.9092 131.485 15.0807V20.8551H128.855ZM121.823 20.8551V10.5642H124.129V13.9754H124.453V20.8551H121.823Z" fill="black"/>
<path d="M119.549 20.8551C118.837 20.9885 118.138 21.0457 117.452 21.0266C116.773 21.0139 116.163 20.8964 115.623 20.6741C115.089 20.4454 114.683 20.0801 114.403 19.5783C114.149 19.1082 114.016 18.6318 114.003 18.149C113.99 17.6599 113.984 17.1072 113.984 16.491V7.70569H116.576V16.3386C116.576 16.7388 116.579 17.1009 116.585 17.4248C116.598 17.7425 116.665 17.9966 116.785 18.1871C117.014 18.5492 117.379 18.7461 117.881 18.7779C118.383 18.8097 118.939 18.7843 119.549 18.7017V20.8551ZM112.231 12.5653V10.5643H119.549V12.5653H112.231Z" fill="black"/>
<path d="M107.926 9.13488V6.84802H110.518V9.13488H107.926ZM107.926 20.855V10.5642H110.518V20.855H107.926Z" fill="black"/>
<path d="M97.6301 20.8549V7.13379H106.015V9.72556H100.222V12.6985H104.872V15.2903H100.222V20.8549H97.6301Z" fill="black"/>
<path d="M88.805 25.4287L90.7965 20.0164L90.825 21.6172L86.3276 10.5641H88.1094L91.635 19.4543H91.0252L94.3316 10.5641H96.0562L90.4534 25.4287H88.805Z" fill="black"/>
<path d="M81.047 21.1408C80.0815 21.1408 79.2684 20.9026 78.6077 20.4261C77.9471 19.9434 77.4452 19.2922 77.1022 18.4728C76.7655 17.647 76.5972 16.7227 76.5972 15.7C76.5972 14.6645 76.7655 13.7371 77.1022 12.9176C77.4452 12.0982 77.9471 11.4534 78.6077 10.9833C79.2747 10.5132 80.091 10.2782 81.0566 10.2782C82.0094 10.2782 82.8289 10.5164 83.5149 10.9928C84.2073 11.4629 84.7378 12.1077 85.1062 12.9271C85.4746 13.7466 85.6589 14.6709 85.6589 15.7C85.6589 16.729 85.4746 17.6533 85.1062 18.4728C84.7378 19.2922 84.2073 19.9434 83.5149 20.4261C82.8289 20.9026 82.0062 21.1408 81.047 21.1408ZM76.3113 25.4286V10.5641H77.8264V18.1393H78.0169V25.4286H76.3113ZM80.8374 19.5876C81.5171 19.5876 82.0793 19.4161 82.524 19.0731C82.9686 18.73 83.3021 18.2663 83.5245 17.6819C83.7468 17.0911 83.858 16.4305 83.858 15.7C83.858 14.9758 83.7468 14.3215 83.5245 13.7371C83.3085 13.1527 82.9718 12.6889 82.5144 12.3459C82.0634 12.0029 81.4885 11.8314 80.7898 11.8314C80.1228 11.8314 79.5701 11.9965 79.1318 12.3268C78.6935 12.6508 78.3663 13.105 78.1503 13.6894C77.9344 14.2675 77.8264 14.9377 77.8264 15.7C77.8264 16.4495 77.9312 17.1197 78.1408 17.7105C78.3568 18.2949 78.6871 18.7555 79.1318 19.0921C79.5765 19.4225 80.145 19.5876 80.8374 19.5876Z" fill="black"/>
<path d="M69.6204 21.1409C68.6549 21.1409 67.8418 20.9027 67.1811 20.4263C66.5205 19.9435 66.0186 19.2924 65.6756 18.4729C65.3389 17.6471 65.1706 16.7228 65.1706 15.7001C65.1706 14.6646 65.3389 13.7372 65.6756 12.9177C66.0186 12.0983 66.5205 11.4535 67.1811 10.9834C67.8481 10.5134 68.6644 10.2783 69.63 10.2783C70.5828 10.2783 71.4023 10.5165 72.0883 10.993C72.7808 11.463 73.3112 12.1078 73.6796 12.9273C74.0481 13.7467 74.2323 14.671 74.2323 15.7001C74.2323 16.7292 74.0481 17.6534 73.6796 18.4729C73.3112 19.2924 72.7808 19.9435 72.0883 20.4263C71.4023 20.9027 70.5797 21.1409 69.6204 21.1409ZM64.8847 25.4288V10.5642H66.3998V18.1394H66.5904V25.4288H64.8847ZM69.4108 19.5877C70.0905 19.5877 70.6527 19.4162 71.0974 19.0732C71.542 18.7302 71.8755 18.2664 72.0979 17.682C72.3202 17.0913 72.4314 16.4306 72.4314 15.7001C72.4314 14.9759 72.3202 14.3216 72.0979 13.7372C71.8819 13.1528 71.5452 12.6891 71.0878 12.346C70.6368 12.003 70.0619 11.8315 69.3632 11.8315C68.6962 11.8315 68.1435 11.9966 67.7052 12.327C67.2669 12.6509 66.9397 13.1051 66.7238 13.6896C66.5078 14.2676 66.3998 14.9378 66.3998 15.7001C66.3998 16.4497 66.5046 17.1198 66.7142 17.7106C66.9302 18.295 67.2605 18.7556 67.7052 19.0923C68.1499 19.4226 68.7184 19.5877 69.4108 19.5877Z" fill="black"/>
<path d="M57.0999 21.1409C56.3313 21.1409 55.6865 21.0012 55.1656 20.7216C54.651 20.4358 54.2604 20.061 53.9936 19.5973C53.7331 19.1335 53.6029 18.6254 53.6029 18.0727C53.6029 17.5327 53.7045 17.0658 53.9078 16.672C54.1174 16.2718 54.4097 15.9415 54.7845 15.681C55.1592 15.4142 55.6071 15.2046 56.128 15.0521C56.6171 14.9187 57.1634 14.8044 57.7669 14.7091C58.3767 14.6075 58.9929 14.5154 59.6154 14.4328C60.238 14.3502 60.8192 14.2708 61.3592 14.1946L60.7493 14.5471C60.7684 13.6324 60.5842 12.9559 60.1967 12.5175C59.8155 12.0792 59.1549 11.8601 58.2147 11.8601C57.5922 11.8601 57.0459 12.003 56.5758 12.2889C56.1121 12.5684 55.785 13.0257 55.5944 13.661L53.984 13.175C54.2318 12.273 54.7114 11.5647 55.4229 11.0501C56.1343 10.5356 57.0713 10.2783 58.2338 10.2783C59.1676 10.2783 59.968 10.4467 60.635 10.7833C61.3084 11.1137 61.7911 11.6155 62.0833 12.2889C62.2294 12.6065 62.3216 12.9527 62.3597 13.3275C62.3978 13.6959 62.4168 14.0834 62.4168 14.49V20.855H60.9113V18.3871L61.2639 18.6158C60.8764 19.448 60.3333 20.0769 59.6345 20.5025C58.9421 20.9281 58.0972 21.1409 57.0999 21.1409ZM57.3572 19.7211C57.967 19.7211 58.4942 19.6132 58.9389 19.3972C59.3899 19.1748 59.752 18.8858 60.0252 18.5301C60.2983 18.168 60.4762 17.7741 60.5588 17.3485C60.6541 17.0309 60.7049 16.6784 60.7112 16.2909C60.7239 15.897 60.7303 15.5953 60.7303 15.3856L61.3211 15.6429C60.7684 15.7191 60.2253 15.7922 59.6917 15.8621C59.1581 15.9319 58.6531 16.0082 58.1766 16.0908C57.7002 16.167 57.2714 16.2591 56.8903 16.3671C56.6108 16.456 56.3471 16.5704 56.0994 16.7101C55.858 16.8499 55.6611 17.0309 55.5086 17.2532C55.3625 17.4692 55.2895 17.7392 55.2895 18.0632C55.2895 18.3427 55.3593 18.6095 55.4991 18.8636C55.6452 19.1177 55.8675 19.3241 56.1661 19.4829C56.471 19.6417 56.868 19.7211 57.3572 19.7211Z" fill="black"/>
<path d="M40.8867 20.8549V7.13379H42.5827V13.1844H49.8054V7.13379H51.5015V20.8549H49.8054V14.7948H42.5827V20.8549H40.8867Z" fill="black"/>
<path d="M19.3742 1.10817e-08C21.3217 1.34037e-08 23.1221 1.04357 24.1012 2.73982L28.7131 10.7296C29.7017 12.4422 29.7017 14.5578 28.7131 16.2704L24.1012 24.2602C23.1221 25.9564 21.3217 27 19.3742 27H10.0803C8.13288 27 6.33241 25.9564 5.3533 24.2602L0.741418 16.2704C-0.24714 14.5578 -0.247139 12.4422 0.741418 10.7296L5.3533 2.73982C6.33241 1.04357 8.13288 -2.32202e-09 10.0803 0L19.3742 1.10817e-08Z" fill="black"/>
<path fill-rule="evenodd" clip-rule="evenodd" d="M20.0091 17.4018C20.5049 17.7715 20.6181 18.4892 20.1891 18.9376C17.2096 22.0512 12.2449 22.0512 9.26545 18.9376C8.83643 18.4892 8.94959 17.7715 9.44542 17.4018C9.94126 17.0321 10.6305 17.1544 11.0849 17.5759C13.1375 19.4797 16.317 19.4797 18.3696 17.5759C18.8241 17.1544 19.5133 17.0321 20.0091 17.4018Z" fill="#EFEBE6"/>
</svg>
